<svg width="18" height="18" viewBox="0 0 18 18" fill="none" xmlns="http://www.w3.org/2000/svg">
<path d="M13.9861 11.0701L13.2185 11.325L12.1794 11.6697L12.9529 12.4432L15.6462 15.1356L15.1355 15.6463L12.4431 12.9529L11.6697 12.1795L11.325 13.2186L11.0701 13.9861L9.82007 9.82013L13.9861 11.0701ZM8.81421 2.07404C9.75099 2.07404 10.624 2.25173 11.4392 2.60333C12.2674 2.96054 12.9803 3.44186 13.5837 4.04572C14.1873 4.64976 14.6689 5.36238 15.0271 6.19025C15.3496 6.93571 15.5223 7.73017 15.5486 8.57794L15.4158 8.53693C15.3536 6.82365 14.7133 5.34224 13.4998 4.12872C12.2212 2.85034 10.6454 2.20685 8.81421 2.20685C6.98302 2.20693 5.4072 2.85018 4.12866 4.12872C2.85012 5.40726 2.20687 6.98308 2.20679 8.81427C2.20679 10.6454 2.85028 12.2213 4.12866 13.4998C5.34218 14.7133 6.82359 15.3537 8.53687 15.4158L8.57788 15.5486C7.72951 15.5212 6.93527 15.3479 6.19019 15.0262C5.36301 14.669 4.65023 14.1878 4.04565 13.5838C3.44127 12.9799 2.95994 12.2668 2.60327 11.4393C2.25215 10.6245 2.07443 9.75176 2.07397 8.81427C2.07353 7.87716 2.25136 7.00469 2.60327 6.19025C2.961 5.3624 3.44212 4.64975 4.04565 4.04572C4.64906 3.44186 5.36198 2.96054 6.19019 2.60333C7.00525 2.25183 7.87765 2.07408 8.81421 2.07404ZM8.81421 5.04083C9.84228 5.04083 10.7006 5.38354 11.4255 6.07697C11.901 6.53181 12.2284 7.04807 12.4138 7.63458L12.2458 7.5838C12.0191 6.9425 11.6334 6.39698 11.0906 5.96173C10.4352 5.43624 9.66725 5.17427 8.81519 5.17365H8.81421C7.81822 5.17373 6.94831 5.53564 6.24194 6.242C5.53558 6.94837 5.17367 7.81828 5.17358 8.81427C5.17358 9.66662 5.4356 10.4352 5.96167 11.0906C6.39718 11.6331 6.9428 12.0191 7.58374 12.2459L7.63452 12.4139C7.04801 12.2285 6.53175 11.9011 6.0769 11.4256C5.38348 10.7007 5.04077 9.84234 5.04077 8.81427C5.04085 7.75551 5.40336 6.87746 6.14038 6.14044C6.8774 5.40342 7.75545 5.04091 8.81421 5.04083Z" fill="#2B2D3B" stroke="#4C60E5" stroke-width="1.35"/>
</svg>
