<svg width="18" height="18" viewBox="0 0 18 18" fill="none" xmlns="http://www.w3.org/2000/svg">
<path d="M15.2127 14.5406C15.3937 14.5406 15.5619 14.4433 15.6439 14.2819C16.1591 13.2693 16.4495 12.123 16.4495 10.909C16.4495 6.79475 13.1142 3.45941 8.99987 3.45941C4.88559 3.45941 1.55029 6.79475 1.55029 10.909C1.55029 12.123 1.8407 13.2693 2.35581 14.2819C2.4379 14.4433 2.60602 14.5406 2.78708 14.5406H15.2127Z" stroke="#2B2D3B" stroke-width="1.35" stroke-linecap="round" stroke-linejoin="round"/>
<path d="M9.76179 12.1088C9.31188 12.5587 8.58242 12.5587 8.13251 12.1088C7.6826 11.6589 7.6826 10.9294 8.13251 10.4795C8.43502 10.177 10.7947 8.55389 12.3084 7.52282C12.5809 7.33724 12.904 7.66043 12.7185 7.93288C11.6874 9.44659 10.0643 11.8063 9.76179 12.1088Z" fill="#2B2D3B"/>
</svg>
